<?xml version="1.0"?>
<svg xmlns="http://www.w3.org/2000/svg" xmlns:xlink="http://www.w3.org/1999/xlink" xmlns:svgjs="http://svgjs.com/svgjs" version="1.1" width="512" height="512" x="0" y="0" viewBox="0 0 74 74" style="enable-background:new 0 0 512 512" xml:space="preserve"><g><path xmlns="http://www.w3.org/2000/svg" d="M60.947,33.677a1,1,0,0,1-.65-.24l-7.1-6.077a1,1,0,0,1-.029-1.493l7.042-6.532a1,1,0,0,1,1.68.733v2.919H71a1,1,0,0,1,1,1v5a1,1,0,0,1-1,1H61.947v2.692a1,1,0,0,1-1,1Zm-5.6-7.107,4.6,3.935v-1.52a1,1,0,0,1,1-1H70v-3H60.89a1,1,0,0,1-1-1V22.359Z" fill="#474747" data-original="#000000" style=""/><path xmlns="http://www.w3.org/2000/svg" d="M13.053,33.677a1,1,0,0,1-1-1V29.985H3a1,1,0,0,1-1-1v-5a1,1,0,0,1,1-1h9.11V20.068a1,1,0,0,1,1.68-.733l7.042,6.532a1,1,0,0,1-.029,1.493l-7.1,6.077A1,1,0,0,1,13.053,33.677ZM4,27.985h9.053a1,1,0,0,1,1,1V30.5l4.6-3.935-4.539-4.21v1.627a1,1,0,0,1-1,1H4Z" fill="#474747" data-original="#000000" style=""/><path xmlns="http://www.w3.org/2000/svg" d="M53.047,66.342a1,1,0,0,1-.916-1.4,32.467,32.467,0,0,0,2.51-10.016A33.707,33.707,0,0,0,52.02,39.032l-1.583-3.778a22.384,22.384,0,0,1-.122-17.113l3.97-9.861a1,1,0,0,1,1.855.747l-3.97,9.861a20.4,20.4,0,0,0,.11,15.593l1.583,3.778A35.7,35.7,0,0,1,56.633,55.1a34.538,34.538,0,0,1-2.668,10.639A1,1,0,0,1,53.047,66.342Z" fill="#474747" data-original="#000000" style=""/><path xmlns="http://www.w3.org/2000/svg" d="M20.953,66.342a1,1,0,0,1-.918-.6A34.47,34.47,0,0,1,17.368,55.1a35.7,35.7,0,0,1,2.769-16.843l1.583-3.777a20.4,20.4,0,0,0,.11-15.593L17.86,9.027a1,1,0,0,1,1.855-.747l3.97,9.861a22.385,22.385,0,0,1-.122,17.113L21.98,39.032a33.7,33.7,0,0,0-2.62,15.894,32.451,32.451,0,0,0,2.509,10.017,1,1,0,0,1-.916,1.4Z" fill="#474747" data-original="#000000" style=""/><path xmlns="http://www.w3.org/2000/svg" d="M37.1,41.033A53.2,53.2,0,0,1,21.2,38.55a1,1,0,1,1,.6-1.909,49.535,49.535,0,0,0,30.4,0,1,1,0,0,1,.609,1.905A51.324,51.324,0,0,1,37.1,41.033Z" fill="#474747" data-original="#000000" style=""/><path xmlns="http://www.w3.org/2000/svg" d="M37,66.346a1,1,0,0,1-1-1v-7.98a5.034,5.034,0,0,0-.9-2.956c-3.653-5.071-15.22-6.3-16.526-6.419A1,1,0,0,1,18.755,46c2.283.215,13.879,1.573,17.963,7.243A7.018,7.018,0,0,1,38,57.366v7.98A1,1,0,0,1,37,66.346Z" fill="#474747" data-original="#000000" style=""/><path xmlns="http://www.w3.org/2000/svg" d="M37,58.366a1,1,0,0,1-1-1,7.018,7.018,0,0,1,1.279-4.121C41.224,47.774,52.024,46.317,55.241,46a1,1,0,1,1,.2,1.99C53.3,48.2,42.444,49.5,38.9,54.413a5.032,5.032,0,0,0-.9,2.954A1,1,0,0,1,37,58.366Z" fill="#474747" data-original="#000000" style=""/><path xmlns="http://www.w3.org/2000/svg" d="M37,32.938a1,1,0,0,1-1-1v-.6a1,1,0,1,1,2,0v.6A1,1,0,0,1,37,32.938Z" fill="#474747" data-original="#000000" style=""/></g></svg>
